<svg xmlns="http://www.w3.org/2000/svg" width="822" height="132" viewBox="0 0 274 44" shape-rendering="crispEdges">
  <rect x="95.25" y="1.25" width="4.5" height="4.5" fill="#000000"/>
  <rect x="113.25" y="1.25" width="4.5" height="4.5" fill="#000000"/>
  <rect x="95.25" y="4.25" width="7.5" height="4.5" fill="#000000"/>
  <rect x="110.25" y="4.25" width="7.5" height="4.5" fill="#000000"/>
  <rect x="95.25" y="7.25" width="4.5" height="4.5" fill="#000000"/>
  <rect x="101.25" y="7.25" width="4.5" height="4.5" fill="#000000"/>
  <rect x="107.25" y="7.25" width="4.5" height="4.5" fill="#000000"/>
  <rect x="113.25" y="7.25" width="4.5" height="4.5" fill="#000000"/>
  <rect x="95.25" y="10.25" width="4.5" height="4.5" fill="#000000"/>
  <rect x="104.25" y="10.25" width="4.5" height="4.5" fill="#000000"/>
  <rect x="113.25" y="10.25" width="4.5" height="4.5" fill="#000000"/>
  <rect x="95.25" y="13.25" width="4.5" height="4.5" fill="#000000"/>
  <rect x="113.25" y="13.25" width="4.5" height="4.5" fill="#000000"/>
  <rect x="95.25" y="16.25" width="4.5" height="4.5" fill="#000000"/>
  <rect x="113.25" y="16.25" width="4.5" height="4.5" fill="#000000"/>
  <rect x="95.25" y="19.25" width="4.5" height="4.5" fill="#000000"/>
  <rect x="113.25" y="19.25" width="4.5" height="4.5" fill="#000000"/>
  <rect x="96" y="2" width="3" height="3" fill="#6E6E6E"/>
  <rect x="114" y="2" width="3" height="3" fill="#6E6E6E"/>
  <rect x="96" y="5" width="6" height="3" fill="#6E6E6E"/>
  <rect x="111" y="5" width="6" height="3" fill="#6E6E6E"/>
  <rect x="96" y="8" width="3" height="3" fill="#6E6E6E"/>
  <rect x="102" y="8" width="3" height="3" fill="#6E6E6E"/>
  <rect x="108" y="8" width="3" height="3" fill="#6E6E6E"/>
  <rect x="114" y="8" width="3" height="3" fill="#6E6E6E"/>
  <rect x="96" y="11" width="3" height="3" fill="#6E6E6E"/>
  <rect x="105" y="11" width="3" height="3" fill="#6E6E6E"/>
  <rect x="114" y="11" width="3" height="3" fill="#6E6E6E"/>
  <rect x="96" y="14" width="3" height="3" fill="#6E6E6E"/>
  <rect x="114" y="14" width="3" height="3" fill="#6E6E6E"/>
  <rect x="96" y="17" width="3" height="3" fill="#6E6E6E"/>
  <rect x="114" y="17" width="3" height="3" fill="#6E6E6E"/>
  <rect x="96" y="20" width="3" height="3" fill="#6E6E6E"/>
  <rect x="114" y="20" width="3" height="3" fill="#6E6E6E"/>
  <rect x="93.25" y="2.25" width="7.5" height="4.5" fill="#000000"/>
  <rect x="108.25" y="2.25" width="7.5" height="4.5" fill="#000000"/>
  <rect x="93.25" y="5.25" width="4.5" height="4.5" fill="#000000"/>
  <rect x="99.25" y="5.25" width="4.5" height="4.5" fill="#000000"/>
  <rect x="105.25" y="5.25" width="4.5" height="4.5" fill="#000000"/>
  <rect x="111.25" y="5.25" width="4.5" height="4.5" fill="#000000"/>
  <rect x="93.25" y="8.25" width="4.5" height="4.5" fill="#000000"/>
  <rect x="102.25" y="8.25" width="4.5" height="4.5" fill="#000000"/>
  <rect x="111.25" y="8.25" width="4.5" height="4.5" fill="#000000"/>
  <rect x="93.25" y="11.25" width="4.5" height="4.5" fill="#000000"/>
  <rect x="111.25" y="11.25" width="4.5" height="4.5" fill="#000000"/>
  <rect x="93.25" y="14.25" width="4.5" height="4.5" fill="#000000"/>
  <rect x="111.25" y="14.25" width="4.5" height="4.5" fill="#000000"/>
  <rect x="93.25" y="17.25" width="4.5" height="4.5" fill="#000000"/>
  <rect x="111.25" y="17.25" width="4.5" height="4.5" fill="#000000"/>
  <rect x="94" y="0" width="3" height="3" fill="#9E9E9E"/>
  <rect x="112" y="0" width="3" height="3" fill="#9E9E9E"/>
  <rect x="94" y="3" width="3" height="3" fill="#9E9E9E"/>
  <rect x="97" y="3" width="3" height="3" fill="#ACACAC"/>
  <rect x="109" y="3" width="6" height="3" fill="#9E9E9E"/>
  <rect x="94" y="6" width="3" height="3" fill="#9E9E9E"/>
  <rect x="100" y="6" width="3" height="3" fill="#9E9E9E"/>
  <rect x="106" y="6" width="3" height="3" fill="#9E9E9E"/>
  <rect x="112" y="6" width="3" height="3" fill="#9E9E9E"/>
  <rect x="94" y="9" width="3" height="3" fill="#9E9E9E"/>
  <rect x="103" y="9" width="3" height="3" fill="#ACACAC"/>
  <rect x="112" y="9" width="3" height="3" fill="#8F8F8F"/>
  <rect x="94" y="12" width="3" height="3" fill="#9E9E9E"/>
  <rect x="112" y="12" width="3" height="3" fill="#9E9E9E"/>
  <rect x="94" y="15" width="3" height="3" fill="#9E9E9E"/>
  <rect x="112" y="15" width="3" height="3" fill="#9E9E9E"/>
  <rect x="94" y="18" width="3" height="3" fill="#9E9E9E"/>
  <rect x="112" y="18" width="3" height="3" fill="#9E9E9E"/>
  <rect x="94" y="0.75" width="3" height="1.5" fill="#D8D8D8"/>
  <rect x="112" y="0.75" width="3" height="1.5" fill="#D8D8D8"/>
  <rect x="97" y="3.75" width="3" height="1.5" fill="#D8D8D8"/>
  <rect x="109" y="3.75" width="3" height="1.5" fill="#D8D8D8"/>
  <rect x="100" y="6.75" width="3" height="1.5" fill="#D8D8D8"/>
  <rect x="106" y="6.75" width="3" height="1.5" fill="#D8D8D8"/>
  <rect x="103" y="9.75" width="3" height="1.5" fill="#D8D8D8"/>
  <rect x="124.25" y="1.25" width="10.5" height="4.5" fill="#000000"/>
  <rect x="127.25" y="4.25" width="4.5" height="4.5" fill="#000000"/>
  <rect x="127.25" y="7.25" width="4.5" height="4.5" fill="#000000"/>
  <rect x="127.25" y="10.25" width="4.5" height="4.5" fill="#000000"/>
  <rect x="127.25" y="13.25" width="4.5" height="4.5" fill="#000000"/>
  <rect x="127.25" y="16.25" width="4.5" height="4.5" fill="#000000"/>
  <rect x="124.25" y="19.25" width="10.5" height="4.5" fill="#000000"/>
  <rect x="125" y="2" width="9" height="3" fill="#6E6E6E"/>
  <rect x="128" y="5" width="3" height="3" fill="#6E6E6E"/>
  <rect x="128" y="8" width="3" height="3" fill="#6E6E6E"/>
  <rect x="128" y="11" width="3" height="3" fill="#6E6E6E"/>
  <rect x="128" y="14" width="3" height="3" fill="#6E6E6E"/>
  <rect x="128" y="17" width="3" height="3" fill="#6E6E6E"/>
  <rect x="125" y="20" width="9" height="3" fill="#6E6E6E"/>
  <rect x="125.25" y="2.25" width="4.5" height="4.5" fill="#000000"/>
  <rect x="125.25" y="5.25" width="4.5" height="4.5" fill="#000000"/>
  <rect x="125.25" y="8.25" width="4.5" height="4.5" fill="#000000"/>
  <rect x="125.25" y="11.25" width="4.5" height="4.5" fill="#000000"/>
  <rect x="125.25" y="14.25" width="4.5" height="4.5" fill="#000000"/>
  <rect x="122.25" y="17.25" width="10.5" height="4.5" fill="#000000"/>
  <rect x="123" y="0" width="3" height="3" fill="#ACACAC"/>
  <rect x="126" y="0" width="6" height="3" fill="#9E9E9E"/>
  <rect x="126" y="3" width="3" height="3" fill="#9E9E9E"/>
  <rect x="126" y="6" width="3" height="3" fill="#9E9E9E"/>
  <rect x="126" y="9" width="3" height="3" fill="#8F8F8F"/>
  <rect x="126" y="12" width="3" height="3" fill="#9E9E9E"/>
  <rect x="126" y="15" width="3" height="3" fill="#9E9E9E"/>
  <rect x="123" y="18" width="9" height="3" fill="#9E9E9E"/>
  <rect x="123" y="0.75" width="9" height="1.5" fill="#D8D8D8"/>
  <rect x="123" y="18.75" width="3" height="1.5" fill="#D8D8D8"/>
  <rect x="129" y="18.75" width="3" height="1.5" fill="#D8D8D8"/>
  <rect x="141.25" y="1.25" width="4.5" height="4.5" fill="#000000"/>
  <rect x="156.25" y="1.25" width="4.5" height="4.5" fill="#000000"/>
  <rect x="141.25" y="4.25" width="7.5" height="4.5" fill="#000000"/>
  <rect x="156.25" y="4.25" width="4.5" height="4.5" fill="#000000"/>
  <rect x="141.25" y="7.25" width="4.5" height="4.5" fill="#000000"/>
  <rect x="147.25" y="7.25" width="4.5" height="4.5" fill="#000000"/>
  <rect x="156.25" y="7.25" width="4.5" height="4.5" fill="#000000"/>
  <rect x="141.25" y="10.25" width="4.5" height="4.5" fill="#000000"/>
  <rect x="150.25" y="10.25" width="4.5" height="4.5" fill="#000000"/>
  <rect x="156.25" y="10.25" width="4.5" height="4.5" fill="#000000"/>
  <rect x="141.25" y="13.25" width="4.5" height="4.5" fill="#000000"/>
  <rect x="153.25" y="13.25" width="7.5" height="4.5" fill="#000000"/>
  <rect x="141.25" y="16.25" width="4.5" height="4.5" fill="#000000"/>
  <rect x="156.25" y="16.25" width="4.5" height="4.5" fill="#000000"/>
  <rect x="141.25" y="19.25" width="4.5" height="4.5" fill="#000000"/>
  <rect x="156.25" y="19.25" width="4.5" height="4.5" fill="#000000"/>
  <rect x="142" y="2" width="3" height="3" fill="#6E6E6E"/>
  <rect x="157" y="2" width="3" height="3" fill="#6E6E6E"/>
  <rect x="142" y="5" width="6" height="3" fill="#6E6E6E"/>
  <rect x="157" y="5" width="3" height="3" fill="#6E6E6E"/>
  <rect x="142" y="8" width="3" height="3" fill="#6E6E6E"/>
  <rect x="148" y="8" width="3" height="3" fill="#6E6E6E"/>
  <rect x="157" y="8" width="3" height="3" fill="#6E6E6E"/>
  <rect x="142" y="11" width="3" height="3" fill="#6E6E6E"/>
  <rect x="151" y="11" width="3" height="3" fill="#6E6E6E"/>
  <rect x="157" y="11" width="3" height="3" fill="#6E6E6E"/>
  <rect x="142" y="14" width="3" height="3" fill="#6E6E6E"/>
  <rect x="154" y="14" width="6" height="3" fill="#6E6E6E"/>
  <rect x="142" y="17" width="3" height="3" fill="#6E6E6E"/>
  <rect x="157" y="17" width="3" height="3" fill="#6E6E6E"/>
  <rect x="142" y="20" width="3" height="3" fill="#6E6E6E"/>
  <rect x="157" y="20" width="3" height="3" fill="#6E6E6E"/>
  <rect x="139.25" y="2.25" width="7.5" height="4.5" fill="#000000"/>
  <rect x="154.25" y="2.25" width="4.5" height="4.5" fill="#000000"/>
  <rect x="139.25" y="5.25" width="4.5" height="4.5" fill="#000000"/>
  <rect x="145.25" y="5.25" width="4.5" height="4.5" fill="#000000"/>
  <rect x="154.25" y="5.25" width="4.5" height="4.5" fill="#000000"/>
  <rect x="139.25" y="8.25" width="4.5" height="4.5" fill="#000000"/>
  <rect x="148.25" y="8.25" width="4.5" height="4.5" fill="#000000"/>
  <rect x="154.25" y="8.25" width="4.5" height="4.5" fill="#000000"/>
  <rect x="139.25" y="11.25" width="4.5" height="4.5" fill="#000000"/>
  <rect x="151.25" y="11.25" width="7.5" height="4.5" fill="#000000"/>
  <rect x="139.25" y="14.25" width="4.5" height="4.5" fill="#000000"/>
  <rect x="154.25" y="14.25" width="4.5" height="4.5" fill="#000000"/>
  <rect x="139.25" y="17.25" width="4.5" height="4.5" fill="#000000"/>
  <rect x="154.25" y="17.25" width="4.5" height="4.5" fill="#000000"/>
  <rect x="140" y="0" width="3" height="3" fill="#9E9E9E"/>
  <rect x="155" y="0" width="3" height="3" fill="#ACACAC"/>
  <rect x="140" y="3" width="3" height="3" fill="#8F8F8F"/>
  <rect x="143" y="3" width="3" height="3" fill="#9E9E9E"/>
  <rect x="155" y="3" width="3" height="3" fill="#9E9E9E"/>
  <rect x="140" y="6" width="3" height="3" fill="#9E9E9E"/>
  <rect x="146" y="6" width="3" height="3" fill="#8F8F8F"/>
  <rect x="155" y="6" width="3" height="3" fill="#9E9E9E"/>
  <rect x="140" y="9" width="3" height="3" fill="#9E9E9E"/>
  <rect x="149" y="9" width="3" height="3" fill="#ACACAC"/>
  <rect x="155" y="9" width="3" height="3" fill="#ACACAC"/>
  <rect x="140" y="12" width="3" height="3" fill="#9E9E9E"/>
  <rect x="152" y="12" width="6" height="3" fill="#9E9E9E"/>
  <rect x="140" y="15" width="3" height="3" fill="#9E9E9E"/>
  <rect x="155" y="15" width="3" height="3" fill="#8F8F8F"/>
  <rect x="140" y="18" width="3" height="3" fill="#9E9E9E"/>
  <rect x="155" y="18" width="3" height="3" fill="#ACACAC"/>
  <rect x="140" y="0.75" width="3" height="1.5" fill="#D8D8D8"/>
  <rect x="155" y="0.75" width="3" height="1.5" fill="#D8D8D8"/>
  <rect x="143" y="3.75" width="3" height="1.5" fill="#D8D8D8"/>
  <rect x="146" y="6.75" width="3" height="1.5" fill="#D8D8D8"/>
  <rect x="149" y="9.75" width="3" height="1.5" fill="#D8D8D8"/>
  <rect x="152" y="12.75" width="3" height="1.5" fill="#D8D8D8"/>
  <rect x="167.25" y="1.25" width="16.5" height="4.5" fill="#000000"/>
  <rect x="167.25" y="4.25" width="4.5" height="4.5" fill="#000000"/>
  <rect x="167.25" y="7.25" width="4.5" height="4.5" fill="#000000"/>
  <rect x="167.25" y="10.25" width="13.5" height="4.5" fill="#000000"/>
  <rect x="167.25" y="13.25" width="4.5" height="4.5" fill="#000000"/>
  <rect x="167.25" y="16.25" width="4.5" height="4.5" fill="#000000"/>
  <rect x="167.25" y="19.25" width="16.5" height="4.5" fill="#000000"/>
  <rect x="168" y="2" width="15" height="3" fill="#6E6E6E"/>
  <rect x="168" y="5" width="3" height="3" fill="#6E6E6E"/>
  <rect x="168" y="8" width="3" height="3" fill="#6E6E6E"/>
  <rect x="168" y="11" width="12" height="3" fill="#6E6E6E"/>
  <rect x="168" y="14" width="3" height="3" fill="#6E6E6E"/>
  <rect x="168" y="17" width="3" height="3" fill="#6E6E6E"/>
  <rect x="168" y="20" width="15" height="3" fill="#6E6E6E"/>
  <rect x="165.25" y="2.25" width="4.5" height="4.5" fill="#000000"/>
  <rect x="165.25" y="5.25" width="4.5" height="4.5" fill="#000000"/>
  <rect x="165.25" y="8.25" width="13.5" height="4.5" fill="#000000"/>
  <rect x="165.25" y="11.25" width="4.5" height="4.5" fill="#000000"/>
  <rect x="165.25" y="14.25" width="4.5" height="4.5" fill="#000000"/>
  <rect x="165.25" y="17.25" width="16.5" height="4.5" fill="#000000"/>
  <rect x="166" y="0" width="6" height="3" fill="#9E9E9E"/>
  <rect x="172" y="0" width="3" height="3" fill="#ACACAC"/>
  <rect x="175" y="0" width="6" height="3" fill="#9E9E9E"/>
  <rect x="166" y="3" width="3" height="3" fill="#9E9E9E"/>
  <rect x="166" y="6" width="3" height="3" fill="#9E9E9E"/>
  <rect x="166" y="9" width="3" height="3" fill="#ACACAC"/>
  <rect x="169" y="9" width="9" height="3" fill="#9E9E9E"/>
  <rect x="166" y="12" width="3" height="3" fill="#9E9E9E"/>
  <rect x="166" y="15" width="3" height="3" fill="#9E9E9E"/>
  <rect x="166" y="18" width="15" height="3" fill="#9E9E9E"/>
  <rect x="166" y="0.75" width="15" height="1.5" fill="#D8D8D8"/>
  <rect x="169" y="9.75" width="9" height="1.5" fill="#D8D8D8"/>
  <rect x="169" y="18.75" width="12" height="1.5" fill="#D8D8D8"/>
  <rect x="78.25" y="22.25" width="16.5" height="4.5" fill="#000000"/>
  <rect x="75.25" y="25.25" width="4.5" height="4.5" fill="#000000"/>
  <rect x="75.25" y="28.25" width="4.5" height="4.5" fill="#000000"/>
  <rect x="75.25" y="31.25" width="4.5" height="4.5" fill="#000000"/>
  <rect x="75.25" y="34.25" width="4.5" height="4.5" fill="#000000"/>
  <rect x="75.25" y="37.25" width="4.5" height="4.5" fill="#000000"/>
  <rect x="78.25" y="40.25" width="16.5" height="4.5" fill="#000000"/>
  <rect x="79" y="23" width="15" height="3" fill="#6E6E6E"/>
  <rect x="76" y="26" width="3" height="3" fill="#6E6E6E"/>
  <rect x="76" y="29" width="3" height="3" fill="#6E6E6E"/>
  <rect x="76" y="32" width="3" height="3" fill="#6E6E6E"/>
  <rect x="76" y="35" width="3" height="3" fill="#6E6E6E"/>
  <rect x="76" y="38" width="3" height="3" fill="#6E6E6E"/>
  <rect x="79" y="41" width="15" height="3" fill="#6E6E6E"/>
  <rect x="76.25" y="20.25" width="16.5" height="4.5" fill="#000000"/>
  <rect x="73.25" y="23.25" width="4.5" height="4.5" fill="#000000"/>
  <rect x="73.25" y="26.25" width="4.5" height="4.5" fill="#000000"/>
  <rect x="73.25" y="29.25" width="4.5" height="4.5" fill="#000000"/>
  <rect x="73.25" y="32.25" width="4.5" height="4.5" fill="#000000"/>
  <rect x="73.25" y="35.25" width="4.5" height="4.5" fill="#000000"/>
  <rect x="76.25" y="38.25" width="16.5" height="4.5" fill="#000000"/>
  <rect x="77" y="21" width="15" height="3" fill="#9E9E9E"/>
  <rect x="74" y="24" width="3" height="3" fill="#ACACAC"/>
  <rect x="74" y="27" width="3" height="3" fill="#8F8F8F"/>
  <rect x="74" y="30" width="3" height="3" fill="#9E9E9E"/>
  <rect x="74" y="33" width="3" height="3" fill="#ACACAC"/>
  <rect x="74" y="36" width="3" height="3" fill="#8F8F8F"/>
  <rect x="77" y="39" width="12" height="3" fill="#9E9E9E"/>
  <rect x="89" y="39" width="3" height="3" fill="#8F8F8F"/>
  <rect x="77" y="21.75" width="15" height="1.5" fill="#D8D8D8"/>
  <rect x="74" y="24.75" width="3" height="1.5" fill="#D8D8D8"/>
  <rect x="77" y="39.75" width="15" height="1.5" fill="#D8D8D8"/>
  <rect x="101.25" y="22.25" width="16.5" height="4.5" fill="#000000"/>
  <rect x="101.25" y="25.25" width="4.5" height="4.5" fill="#000000"/>
  <rect x="116.25" y="25.25" width="4.5" height="4.5" fill="#000000"/>
  <rect x="101.25" y="28.25" width="4.5" height="4.5" fill="#000000"/>
  <rect x="116.25" y="28.25" width="4.5" height="4.5" fill="#000000"/>
  <rect x="101.25" y="31.25" width="16.5" height="4.5" fill="#000000"/>
  <rect x="101.25" y="34.25" width="4.5" height="4.5" fill="#000000"/>
  <rect x="110.25" y="34.25" width="4.5" height="4.5" fill="#000000"/>
  <rect x="101.25" y="37.25" width="4.5" height="4.5" fill="#000000"/>
  <rect x="113.25" y="37.25" width="4.5" height="4.5" fill="#000000"/>
  <rect x="101.25" y="40.25" width="4.5" height="4.5" fill="#000000"/>
  <rect x="116.25" y="40.25" width="4.5" height="4.5" fill="#000000"/>
  <rect x="102" y="23" width="15" height="3" fill="#6E6E6E"/>
  <rect x="102" y="26" width="3" height="3" fill="#6E6E6E"/>
  <rect x="117" y="26" width="3" height="3" fill="#6E6E6E"/>
  <rect x="102" y="29" width="3" height="3" fill="#6E6E6E"/>
  <rect x="117" y="29" width="3" height="3" fill="#6E6E6E"/>
  <rect x="102" y="32" width="15" height="3" fill="#6E6E6E"/>
  <rect x="102" y="35" width="3" height="3" fill="#6E6E6E"/>
  <rect x="111" y="35" width="3" height="3" fill="#6E6E6E"/>
  <rect x="102" y="38" width="3" height="3" fill="#6E6E6E"/>
  <rect x="114" y="38" width="3" height="3" fill="#6E6E6E"/>
  <rect x="102" y="41" width="3" height="3" fill="#6E6E6E"/>
  <rect x="117" y="41" width="3" height="3" fill="#6E6E6E"/>
  <rect x="99.25" y="20.25" width="16.5" height="4.5" fill="#000000"/>
  <rect x="99.25" y="23.25" width="4.5" height="4.5" fill="#000000"/>
  <rect x="114.25" y="23.25" width="4.5" height="4.5" fill="#000000"/>
  <rect x="99.25" y="26.25" width="4.5" height="4.5" fill="#000000"/>
  <rect x="114.25" y="26.25" width="4.5" height="4.5" fill="#000000"/>
  <rect x="99.25" y="29.25" width="16.5" height="4.5" fill="#000000"/>
  <rect x="99.25" y="32.25" width="4.5" height="4.5" fill="#000000"/>
  <rect x="108.25" y="32.25" width="4.5" height="4.5" fill="#000000"/>
  <rect x="99.25" y="35.25" width="4.5" height="4.5" fill="#000000"/>
  <rect x="111.25" y="35.25" width="4.5" height="4.5" fill="#000000"/>
  <rect x="99.25" y="38.25" width="4.5" height="4.5" fill="#000000"/>
  <rect x="114.25" y="38.25" width="4.5" height="4.5" fill="#000000"/>
  <rect x="100" y="21" width="15" height="3" fill="#9E9E9E"/>
  <rect x="100" y="24" width="3" height="3" fill="#9E9E9E"/>
  <rect x="115" y="24" width="3" height="3" fill="#9E9E9E"/>
  <rect x="100" y="27" width="3" height="3" fill="#9E9E9E"/>
  <rect x="115" y="27" width="3" height="3" fill="#9E9E9E"/>
  <rect x="100" y="30" width="3" height="3" fill="#9E9E9E"/>
  <rect x="103" y="30" width="3" height="3" fill="#ACACAC"/>
  <rect x="106" y="30" width="9" height="3" fill="#9E9E9E"/>
  <rect x="100" y="33" width="3" height="3" fill="#9E9E9E"/>
  <rect x="109" y="33" width="3" height="3" fill="#9E9E9E"/>
  <rect x="100" y="36" width="3" height="3" fill="#9E9E9E"/>
  <rect x="112" y="36" width="3" height="3" fill="#9E9E9E"/>
  <rect x="100" y="39" width="3" height="3" fill="#9E9E9E"/>
  <rect x="115" y="39" width="3" height="3" fill="#9E9E9E"/>
  <rect x="100" y="21.75" width="15" height="1.5" fill="#D8D8D8"/>
  <rect x="115" y="24.75" width="3" height="1.5" fill="#D8D8D8"/>
  <rect x="103" y="30.75" width="12" height="1.5" fill="#D8D8D8"/>
  <rect x="112" y="36.75" width="3" height="1.5" fill="#D8D8D8"/>
  <rect x="115" y="39.75" width="3" height="1.5" fill="#D8D8D8"/>
  <rect x="133.25" y="22.25" width="10.5" height="4.5" fill="#000000"/>
  <rect x="130.25" y="25.25" width="4.5" height="4.5" fill="#000000"/>
  <rect x="142.25" y="25.25" width="4.5" height="4.5" fill="#000000"/>
  <rect x="127.25" y="28.25" width="4.5" height="4.5" fill="#000000"/>
  <rect x="145.25" y="28.25" width="4.5" height="4.5" fill="#000000"/>
  <rect x="127.25" y="31.25" width="4.5" height="4.5" fill="#000000"/>
  <rect x="145.25" y="31.25" width="4.5" height="4.5" fill="#000000"/>
  <rect x="127.25" y="34.25" width="22.5" height="4.5" fill="#000000"/>
  <rect x="127.25" y="37.25" width="4.5" height="4.5" fill="#000000"/>
  <rect x="145.25" y="37.25" width="4.5" height="4.5" fill="#000000"/>
  <rect x="127.25" y="40.25" width="4.5" height="4.5" fill="#000000"/>
  <rect x="145.25" y="40.25" width="4.5" height="4.5" fill="#000000"/>
  <rect x="134" y="23" width="9" height="3" fill="#6E6E6E"/>
  <rect x="131" y="26" width="3" height="3" fill="#6E6E6E"/>
  <rect x="143" y="26" width="3" height="3" fill="#6E6E6E"/>
  <rect x="128" y="29" width="3" height="3" fill="#6E6E6E"/>
  <rect x="146" y="29" width="3" height="3" fill="#6E6E6E"/>
  <rect x="128" y="32" width="3" height="3" fill="#6E6E6E"/>
  <rect x="146" y="32" width="3" height="3" fill="#6E6E6E"/>
  <rect x="128" y="35" width="21" height="3" fill="#6E6E6E"/>
  <rect x="128" y="38" width="3" height="3" fill="#6E6E6E"/>
  <rect x="146" y="38" width="3" height="3" fill="#6E6E6E"/>
  <rect x="128" y="41" width="3" height="3" fill="#6E6E6E"/>
  <rect x="146" y="41" width="3" height="3" fill="#6E6E6E"/>
  <rect x="131.25" y="20.25" width="10.5" height="4.5" fill="#000000"/>
  <rect x="128.25" y="23.25" width="4.5" height="4.5" fill="#000000"/>
  <rect x="140.25" y="23.25" width="4.5" height="4.5" fill="#000000"/>
  <rect x="125.25" y="26.25" width="4.5" height="4.5" fill="#000000"/>
  <rect x="143.25" y="26.25" width="4.5" height="4.5" fill="#000000"/>
  <rect x="125.25" y="29.25" width="4.5" height="4.5" fill="#000000"/>
  <rect x="143.25" y="29.25" width="4.5" height="4.5" fill="#000000"/>
  <rect x="125.25" y="32.25" width="22.5" height="4.5" fill="#000000"/>
  <rect x="125.25" y="35.25" width="4.5" height="4.5" fill="#000000"/>
  <rect x="143.25" y="35.25" width="4.5" height="4.5" fill="#000000"/>
  <rect x="125.25" y="38.25" width="4.5" height="4.5" fill="#000000"/>
  <rect x="143.25" y="38.25" width="4.5" height="4.5" fill="#000000"/>
  <rect x="132" y="21" width="9" height="3" fill="#9E9E9E"/>
  <rect x="129" y="24" width="3" height="3" fill="#9E9E9E"/>
  <rect x="141" y="24" width="3" height="3" fill="#9E9E9E"/>
  <rect x="126" y="27" width="3" height="3" fill="#9E9E9E"/>
  <rect x="144" y="27" width="3" height="3" fill="#9E9E9E"/>
  <rect x="126" y="30" width="3" height="3" fill="#9E9E9E"/>
  <rect x="144" y="30" width="3" height="3" fill="#9E9E9E"/>
  <rect x="126" y="33" width="3" height="3" fill="#ACACAC"/>
  <rect x="129" y="33" width="12" height="3" fill="#9E9E9E"/>
  <rect x="141" y="33" width="3" height="3" fill="#ACACAC"/>
  <rect x="144" y="33" width="3" height="3" fill="#9E9E9E"/>
  <rect x="126" y="36" width="3" height="3" fill="#ACACAC"/>
  <rect x="144" y="36" width="3" height="3" fill="#9E9E9E"/>
  <rect x="126" y="39" width="3" height="3" fill="#9E9E9E"/>
  <rect x="144" y="39" width="3" height="3" fill="#9E9E9E"/>
  <rect x="132" y="21.75" width="9" height="1.5" fill="#D8D8D8"/>
  <rect x="129" y="24.75" width="3" height="1.5" fill="#D8D8D8"/>
  <rect x="141" y="24.75" width="3" height="1.5" fill="#D8D8D8"/>
  <rect x="126" y="27.75" width="3" height="1.5" fill="#D8D8D8"/>
  <rect x="144" y="27.75" width="3" height="1.5" fill="#D8D8D8"/>
  <rect x="129" y="33.75" width="15" height="1.5" fill="#D8D8D8"/>
  <rect x="156.25" y="22.25" width="16.5" height="4.5" fill="#000000"/>
  <rect x="156.25" y="25.25" width="4.5" height="4.5" fill="#000000"/>
  <rect x="156.25" y="28.25" width="4.5" height="4.5" fill="#000000"/>
  <rect x="156.25" y="31.25" width="13.5" height="4.5" fill="#000000"/>
  <rect x="156.25" y="34.25" width="4.5" height="4.5" fill="#000000"/>
  <rect x="156.25" y="37.25" width="4.5" height="4.5" fill="#000000"/>
  <rect x="156.25" y="40.25" width="4.5" height="4.5" fill="#000000"/>
  <rect x="157" y="23" width="15" height="3" fill="#6E6E6E"/>
  <rect x="157" y="26" width="3" height="3" fill="#6E6E6E"/>
  <rect x="157" y="29" width="3" height="3" fill="#6E6E6E"/>
  <rect x="157" y="32" width="12" height="3" fill="#6E6E6E"/>
  <rect x="157" y="35" width="3" height="3" fill="#6E6E6E"/>
  <rect x="157" y="38" width="3" height="3" fill="#6E6E6E"/>
  <rect x="157" y="41" width="3" height="3" fill="#6E6E6E"/>
  <rect x="154.25" y="20.25" width="16.5" height="4.5" fill="#000000"/>
  <rect x="154.25" y="23.25" width="4.5" height="4.5" fill="#000000"/>
  <rect x="154.25" y="26.25" width="4.5" height="4.5" fill="#000000"/>
  <rect x="154.25" y="29.25" width="13.5" height="4.5" fill="#000000"/>
  <rect x="154.25" y="32.25" width="4.5" height="4.5" fill="#000000"/>
  <rect x="154.25" y="35.25" width="4.5" height="4.5" fill="#000000"/>
  <rect x="154.25" y="38.25" width="4.5" height="4.5" fill="#000000"/>
  <rect x="155" y="21" width="15" height="3" fill="#9E9E9E"/>
  <rect x="155" y="24" width="3" height="3" fill="#9E9E9E"/>
  <rect x="155" y="27" width="3" height="3" fill="#9E9E9E"/>
  <rect x="155" y="30" width="6" height="3" fill="#9E9E9E"/>
  <rect x="161" y="30" width="3" height="3" fill="#8F8F8F"/>
  <rect x="164" y="30" width="3" height="3" fill="#9E9E9E"/>
  <rect x="155" y="33" width="3" height="3" fill="#9E9E9E"/>
  <rect x="155" y="36" width="3" height="3" fill="#9E9E9E"/>
  <rect x="155" y="39" width="3" height="3" fill="#9E9E9E"/>
  <rect x="155" y="21.75" width="15" height="1.5" fill="#D8D8D8"/>
  <rect x="158" y="30.75" width="9" height="1.5" fill="#D8D8D8"/>
  <rect x="179.25" y="22.25" width="22.5" height="4.5" fill="#000000"/>
  <rect x="188.25" y="25.25" width="4.5" height="4.5" fill="#000000"/>
  <rect x="188.25" y="28.25" width="4.5" height="4.5" fill="#000000"/>
  <rect x="188.25" y="31.25" width="4.5" height="4.5" fill="#000000"/>
  <rect x="188.25" y="34.25" width="4.5" height="4.5" fill="#000000"/>
  <rect x="188.25" y="37.25" width="4.5" height="4.5" fill="#000000"/>
  <rect x="188.25" y="40.25" width="4.5" height="4.5" fill="#000000"/>
  <rect x="180" y="23" width="21" height="3" fill="#6E6E6E"/>
  <rect x="189" y="26" width="3" height="3" fill="#6E6E6E"/>
  <rect x="189" y="29" width="3" height="3" fill="#6E6E6E"/>
  <rect x="189" y="32" width="3" height="3" fill="#6E6E6E"/>
  <rect x="189" y="35" width="3" height="3" fill="#6E6E6E"/>
  <rect x="189" y="38" width="3" height="3" fill="#6E6E6E"/>
  <rect x="189" y="41" width="3" height="3" fill="#6E6E6E"/>
  <rect x="177.25" y="20.25" width="22.5" height="4.5" fill="#000000"/>
  <rect x="186.25" y="23.25" width="4.5" height="4.5" fill="#000000"/>
  <rect x="186.25" y="26.25" width="4.5" height="4.5" fill="#000000"/>
  <rect x="186.25" y="29.25" width="4.5" height="4.5" fill="#000000"/>
  <rect x="186.25" y="32.25" width="4.5" height="4.5" fill="#000000"/>
  <rect x="186.25" y="35.25" width="4.5" height="4.5" fill="#000000"/>
  <rect x="186.25" y="38.25" width="4.5" height="4.5" fill="#000000"/>
  <rect x="178" y="21" width="15" height="3" fill="#9E9E9E"/>
  <rect x="193" y="21" width="3" height="3" fill="#ACACAC"/>
  <rect x="196" y="21" width="3" height="3" fill="#9E9E9E"/>
  <rect x="187" y="24" width="3" height="3" fill="#9E9E9E"/>
  <rect x="187" y="27" width="3" height="3" fill="#ACACAC"/>
  <rect x="187" y="30" width="3" height="3" fill="#ACACAC"/>
  <rect x="187" y="33" width="3" height="3" fill="#9E9E9E"/>
  <rect x="187" y="36" width="3" height="3" fill="#9E9E9E"/>
  <rect x="187" y="39" width="3" height="3" fill="#9E9E9E"/>
  <rect x="178" y="21.75" width="21" height="1.5" fill="#D8D8D8"/>
  <rect x="135" y="41" width="2" height="2" fill="#8F8F8F"/>
  <rect x="181" y="42" width="1" height="1" fill="#6E6E6E"/>
  <rect x="138" y="43" width="1" height="1" fill="#9E9E9E"/>
  <rect x="164" y="43" width="1" height="1" fill="#6E6E6E"/>
  <rect x="102" y="43" width="1" height="1" fill="#4A4A4A"/>
  <rect x="245" y="35" width="9" height="1" fill="#3F3F00"/>
  <rect x="245" y="36" width="1" height="1" fill="#3F3F00"/>
  <rect x="248" y="36" width="1" height="1" fill="#3F3F00"/>
  <rect x="250" y="36" width="2" height="1" fill="#3F3F00"/>
  <rect x="253" y="36" width="1" height="1" fill="#3F3F00"/>
  <rect x="245" y="37" width="1" height="1" fill="#3F3F00"/>
  <rect x="248" y="37" width="1" height="1" fill="#3F3F00"/>
  <rect x="250" y="37" width="2" height="1" fill="#3F3F00"/>
  <rect x="253" y="37" width="1" height="1" fill="#3F3F00"/>
  <rect x="245" y="38" width="7" height="1" fill="#3F3F00"/>
  <rect x="253" y="38" width="1" height="1" fill="#3F3F00"/>
  <rect x="245" y="39" width="1" height="1" fill="#3F3F00"/>
  <rect x="247" y="39" width="2" height="1" fill="#3F3F00"/>
  <rect x="250" y="39" width="2" height="1" fill="#3F3F00"/>
  <rect x="253" y="39" width="1" height="1" fill="#3F3F00"/>
  <rect x="245" y="40" width="1" height="1" fill="#3F3F00"/>
  <rect x="247" y="40" width="7" height="1" fill="#3F3F00"/>
  <rect x="245" y="41" width="1" height="1" fill="#3F3F00"/>
  <rect x="247" y="41" width="2" height="1" fill="#3F3F00"/>
  <rect x="250" y="41" width="1" height="1" fill="#3F3F00"/>
  <rect x="253" y="41" width="1" height="1" fill="#3F3F00"/>
  <rect x="245" y="42" width="3" height="1" fill="#3F3F00"/>
  <rect x="249" y="42" width="2" height="1" fill="#3F3F00"/>
  <rect x="253" y="42" width="1" height="1" fill="#3F3F00"/>
  <rect x="244" y="34" width="9" height="1" fill="#FFFF55"/>
  <rect x="244" y="35" width="1" height="1" fill="#FFFF55"/>
  <rect x="247" y="35" width="1" height="1" fill="#FFFF55"/>
  <rect x="249" y="35" width="2" height="1" fill="#FFFF55"/>
  <rect x="252" y="35" width="1" height="1" fill="#FFFF55"/>
  <rect x="244" y="36" width="1" height="1" fill="#FFFF55"/>
  <rect x="247" y="36" width="1" height="1" fill="#FFFF55"/>
  <rect x="249" y="36" width="2" height="1" fill="#FFFF55"/>
  <rect x="252" y="36" width="1" height="1" fill="#FFFF55"/>
  <rect x="244" y="37" width="7" height="1" fill="#FFFF55"/>
  <rect x="252" y="37" width="1" height="1" fill="#FFFF55"/>
  <rect x="244" y="38" width="1" height="1" fill="#FFFF55"/>
  <rect x="246" y="38" width="2" height="1" fill="#FFFF55"/>
  <rect x="249" y="38" width="2" height="1" fill="#FFFF55"/>
  <rect x="252" y="38" width="1" height="1" fill="#FFFF55"/>
  <rect x="244" y="39" width="1" height="1" fill="#FFFF55"/>
  <rect x="246" y="39" width="7" height="1" fill="#FFFF55"/>
  <rect x="244" y="40" width="1" height="1" fill="#FFFF55"/>
  <rect x="246" y="40" width="2" height="1" fill="#FFFF55"/>
  <rect x="249" y="40" width="1" height="1" fill="#FFFF55"/>
  <rect x="252" y="40" width="1" height="1" fill="#FFFF55"/>
  <rect x="244" y="41" width="3" height="1" fill="#FFFF55"/>
  <rect x="248" y="41" width="2" height="1" fill="#FFFF55"/>
  <rect x="252" y="41" width="1" height="1" fill="#FFFF55"/>
  <rect x="255" y="35" width="9" height="1" fill="#3F3F00"/>
  <rect x="258" y="36" width="2" height="1" fill="#3F3F00"/>
  <rect x="256" y="37" width="8" height="1" fill="#3F3F00"/>
  <rect x="256" y="38" width="1" height="1" fill="#3F3F00"/>
  <rect x="259" y="38" width="1" height="1" fill="#3F3F00"/>
  <rect x="262" y="38" width="2" height="1" fill="#3F3F00"/>
  <rect x="256" y="39" width="1" height="1" fill="#3F3F00"/>
  <rect x="259" y="39" width="1" height="1" fill="#3F3F00"/>
  <rect x="262" y="39" width="2" height="1" fill="#3F3F00"/>
  <rect x="256" y="40" width="1" height="1" fill="#3F3F00"/>
  <rect x="259" y="40" width="1" height="1" fill="#3F3F00"/>
  <rect x="262" y="40" width="2" height="1" fill="#3F3F00"/>
  <rect x="256" y="41" width="1" height="1" fill="#3F3F00"/>
  <rect x="259" y="41" width="1" height="1" fill="#3F3F00"/>
  <rect x="262" y="41" width="2" height="1" fill="#3F3F00"/>
  <rect x="256" y="42" width="1" height="1" fill="#3F3F00"/>
  <rect x="258" y="42" width="5" height="1" fill="#3F3F00"/>
  <rect x="254" y="34" width="9" height="1" fill="#FFFF55"/>
  <rect x="257" y="35" width="2" height="1" fill="#FFFF55"/>
  <rect x="255" y="36" width="8" height="1" fill="#FFFF55"/>
  <rect x="255" y="37" width="1" height="1" fill="#FFFF55"/>
  <rect x="258" y="37" width="1" height="1" fill="#FFFF55"/>
  <rect x="261" y="37" width="2" height="1" fill="#FFFF55"/>
  <rect x="255" y="38" width="1" height="1" fill="#FFFF55"/>
  <rect x="258" y="38" width="1" height="1" fill="#FFFF55"/>
  <rect x="261" y="38" width="2" height="1" fill="#FFFF55"/>
  <rect x="255" y="39" width="1" height="1" fill="#FFFF55"/>
  <rect x="258" y="39" width="1" height="1" fill="#FFFF55"/>
  <rect x="261" y="39" width="2" height="1" fill="#FFFF55"/>
  <rect x="255" y="40" width="1" height="1" fill="#FFFF55"/>
  <rect x="258" y="40" width="1" height="1" fill="#FFFF55"/>
  <rect x="261" y="40" width="2" height="1" fill="#FFFF55"/>
  <rect x="255" y="41" width="1" height="1" fill="#FFFF55"/>
  <rect x="257" y="41" width="5" height="1" fill="#FFFF55"/>
  <rect x="265" y="35" width="1" height="1" fill="#3F3F00"/>
  <rect x="267" y="35" width="1" height="1" fill="#3F3F00"/>
  <rect x="265" y="36" width="1" height="1" fill="#3F3F00"/>
  <rect x="267" y="36" width="1" height="1" fill="#3F3F00"/>
  <rect x="269" y="36" width="5" height="1" fill="#3F3F00"/>
  <rect x="265" y="37" width="1" height="1" fill="#3F3F00"/>
  <rect x="267" y="37" width="1" height="1" fill="#3F3F00"/>
  <rect x="269" y="37" width="2" height="1" fill="#3F3F00"/>
  <rect x="265" y="38" width="6" height="1" fill="#3F3F00"/>
  <rect x="265" y="39" width="1" height="1" fill="#3F3F00"/>
  <rect x="269" y="39" width="5" height="1" fill="#3F3F00"/>
  <rect x="265" y="40" width="1" height="1" fill="#3F3F00"/>
  <rect x="269" y="40" width="3" height="1" fill="#3F3F00"/>
  <rect x="273" y="40" width="1" height="1" fill="#3F3F00"/>
  <rect x="265" y="41" width="3" height="1" fill="#3F3F00"/>
  <rect x="269" y="41" width="5" height="1" fill="#3F3F00"/>
  <rect x="265" y="42" width="1" height="1" fill="#3F3F00"/>
  <rect x="267" y="42" width="1" height="1" fill="#3F3F00"/>
  <rect x="269" y="42" width="1" height="1" fill="#3F3F00"/>
  <rect x="271" y="42" width="3" height="1" fill="#3F3F00"/>
  <rect x="265" y="43" width="1" height="1" fill="#3F3F00"/>
  <rect x="267" y="43" width="3" height="1" fill="#3F3F00"/>
  <rect x="271" y="43" width="2" height="1" fill="#3F3F00"/>
  <rect x="264" y="34" width="1" height="1" fill="#FFFF55"/>
  <rect x="266" y="34" width="1" height="1" fill="#FFFF55"/>
  <rect x="264" y="35" width="1" height="1" fill="#FFFF55"/>
  <rect x="266" y="35" width="1" height="1" fill="#FFFF55"/>
  <rect x="268" y="35" width="5" height="1" fill="#FFFF55"/>
  <rect x="264" y="36" width="1" height="1" fill="#FFFF55"/>
  <rect x="266" y="36" width="1" height="1" fill="#FFFF55"/>
  <rect x="268" y="36" width="2" height="1" fill="#FFFF55"/>
  <rect x="264" y="37" width="6" height="1" fill="#FFFF55"/>
  <rect x="264" y="38" width="1" height="1" fill="#FFFF55"/>
  <rect x="268" y="38" width="5" height="1" fill="#FFFF55"/>
  <rect x="264" y="39" width="1" height="1" fill="#FFFF55"/>
  <rect x="268" y="39" width="3" height="1" fill="#FFFF55"/>
  <rect x="272" y="39" width="1" height="1" fill="#FFFF55"/>
  <rect x="264" y="40" width="3" height="1" fill="#FFFF55"/>
  <rect x="268" y="40" width="5" height="1" fill="#FFFF55"/>
  <rect x="264" y="41" width="1" height="1" fill="#FFFF55"/>
  <rect x="266" y="41" width="1" height="1" fill="#FFFF55"/>
  <rect x="268" y="41" width="1" height="1" fill="#FFFF55"/>
  <rect x="270" y="41" width="3" height="1" fill="#FFFF55"/>
  <rect x="264" y="42" width="1" height="1" fill="#FFFF55"/>
  <rect x="266" y="42" width="3" height="1" fill="#FFFF55"/>
  <rect x="270" y="42" width="2" height="1" fill="#FFFF55"/>
  <polyline points="98,4 99,5 98,7 99,8" fill="none" stroke="#000000" stroke-width="0.6" stroke-linecap="square" stroke-linejoin="miter"/>
  <polyline points="105,25 106,26 105,28" fill="none" stroke="#000000" stroke-width="0.6" stroke-linecap="square" stroke-linejoin="miter"/>
  <polyline points="184,24 185,25 184,27" fill="none" stroke="#000000" stroke-width="0.6" stroke-linecap="square" stroke-linejoin="miter"/>
</svg>
