<svg xmlns="http://www.w3.org/2000/svg" width="822" height="132" viewBox="0 0 274 44" shape-rendering="crispEdges">
  <rect x="93.25" y="1.25" width="4.5" height="4.5" fill="#000000"/>
  <rect x="111.25" y="1.25" width="4.5" height="4.5" fill="#000000"/>
  <rect x="93.25" y="4.25" width="7.5" height="4.5" fill="#000000"/>
  <rect x="108.25" y="4.25" width="7.5" height="4.5" fill="#000000"/>
  <rect x="93.25" y="7.25" width="4.5" height="4.5" fill="#000000"/>
  <rect x="99.25" y="7.25" width="4.5" height="4.5" fill="#000000"/>
  <rect x="105.25" y="7.25" width="4.5" height="4.5" fill="#000000"/>
  <rect x="111.25" y="7.25" width="4.5" height="4.5" fill="#000000"/>
  <rect x="93.25" y="10.25" width="4.5" height="4.5" fill="#000000"/>
  <rect x="102.25" y="10.25" width="4.5" height="4.5" fill="#000000"/>
  <rect x="111.25" y="10.25" width="4.5" height="4.5" fill="#000000"/>
  <rect x="93.25" y="13.25" width="4.5" height="4.5" fill="#000000"/>
  <rect x="111.25" y="13.25" width="4.5" height="4.5" fill="#000000"/>
  <rect x="93.25" y="16.25" width="4.5" height="4.5" fill="#000000"/>
  <rect x="111.25" y="16.25" width="4.5" height="4.5" fill="#000000"/>
  <rect x="93.25" y="19.25" width="4.5" height="4.5" fill="#000000"/>
  <rect x="111.25" y="19.25" width="4.5" height="4.5" fill="#000000"/>
  <rect x="94" y="2" width="3" height="3" fill="#6E6E6E"/>
  <rect x="112" y="2" width="3" height="3" fill="#6E6E6E"/>
  <rect x="94" y="5" width="6" height="3" fill="#6E6E6E"/>
  <rect x="109" y="5" width="6" height="3" fill="#6E6E6E"/>
  <rect x="94" y="8" width="3" height="3" fill="#6E6E6E"/>
  <rect x="100" y="8" width="3" height="3" fill="#6E6E6E"/>
  <rect x="106" y="8" width="3" height="3" fill="#6E6E6E"/>
  <rect x="112" y="8" width="3" height="3" fill="#6E6E6E"/>
  <rect x="94" y="11" width="3" height="3" fill="#6E6E6E"/>
  <rect x="103" y="11" width="3" height="3" fill="#6E6E6E"/>
  <rect x="112" y="11" width="3" height="3" fill="#6E6E6E"/>
  <rect x="94" y="14" width="3" height="3" fill="#6E6E6E"/>
  <rect x="112" y="14" width="3" height="3" fill="#6E6E6E"/>
  <rect x="94" y="17" width="3" height="3" fill="#6E6E6E"/>
  <rect x="112" y="17" width="3" height="3" fill="#6E6E6E"/>
  <rect x="94" y="20" width="3" height="3" fill="#6E6E6E"/>
  <rect x="112" y="20" width="3" height="3" fill="#6E6E6E"/>
  <rect x="91.25" y="2.25" width="7.5" height="4.5" fill="#000000"/>
  <rect x="106.25" y="2.25" width="7.5" height="4.5" fill="#000000"/>
  <rect x="91.25" y="5.25" width="4.5" height="4.5" fill="#000000"/>
  <rect x="97.25" y="5.25" width="4.5" height="4.5" fill="#000000"/>
  <rect x="103.25" y="5.25" width="4.5" height="4.5" fill="#000000"/>
  <rect x="109.25" y="5.25" width="4.5" height="4.5" fill="#000000"/>
  <rect x="91.25" y="8.25" width="4.5" height="4.5" fill="#000000"/>
  <rect x="100.25" y="8.25" width="4.5" height="4.5" fill="#000000"/>
  <rect x="109.25" y="8.25" width="4.5" height="4.5" fill="#000000"/>
  <rect x="91.25" y="11.25" width="4.5" height="4.5" fill="#000000"/>
  <rect x="109.25" y="11.25" width="4.5" height="4.5" fill="#000000"/>
  <rect x="91.25" y="14.25" width="4.5" height="4.5" fill="#000000"/>
  <rect x="109.25" y="14.25" width="4.5" height="4.5" fill="#000000"/>
  <rect x="91.25" y="17.25" width="4.5" height="4.5" fill="#000000"/>
  <rect x="109.25" y="17.25" width="4.5" height="4.5" fill="#000000"/>
  <rect x="92" y="0" width="3" height="3" fill="#9E9E9E"/>
  <rect x="110" y="0" width="3" height="3" fill="#8F8F8F"/>
  <rect x="92" y="3" width="3" height="3" fill="#8F8F8F"/>
  <rect x="95" y="3" width="3" height="3" fill="#9E9E9E"/>
  <rect x="107" y="3" width="3" height="3" fill="#ACACAC"/>
  <rect x="110" y="3" width="3" height="3" fill="#9E9E9E"/>
  <rect x="92" y="6" width="3" height="3" fill="#9E9E9E"/>
  <rect x="98" y="6" width="3" height="3" fill="#9E9E9E"/>
  <rect x="104" y="6" width="3" height="3" fill="#9E9E9E"/>
  <rect x="110" y="6" width="3" height="3" fill="#9E9E9E"/>
  <rect x="92" y="9" width="3" height="3" fill="#9E9E9E"/>
  <rect x="101" y="9" width="3" height="3" fill="#9E9E9E"/>
  <rect x="110" y="9" width="3" height="3" fill="#9E9E9E"/>
  <rect x="92" y="12" width="3" height="3" fill="#9E9E9E"/>
  <rect x="110" y="12" width="3" height="3" fill="#9E9E9E"/>
  <rect x="92" y="15" width="3" height="3" fill="#9E9E9E"/>
  <rect x="110" y="15" width="3" height="3" fill="#9E9E9E"/>
  <rect x="92" y="18" width="3" height="3" fill="#8F8F8F"/>
  <rect x="110" y="18" width="3" height="3" fill="#9E9E9E"/>
  <rect x="92" y="0.75" width="3" height="1.5" fill="#D8D8D8"/>
  <rect x="110" y="0.75" width="3" height="1.5" fill="#D8D8D8"/>
  <rect x="95" y="3.75" width="3" height="1.5" fill="#D8D8D8"/>
  <rect x="107" y="3.75" width="3" height="1.5" fill="#D8D8D8"/>
  <rect x="98" y="6.75" width="3" height="1.5" fill="#D8D8D8"/>
  <rect x="104" y="6.75" width="3" height="1.5" fill="#D8D8D8"/>
  <rect x="101" y="9.75" width="3" height="1.5" fill="#D8D8D8"/>
  <rect x="122.25" y="1.25" width="10.5" height="4.5" fill="#000000"/>
  <rect x="125.25" y="4.25" width="4.5" height="4.5" fill="#000000"/>
  <rect x="125.25" y="7.25" width="4.5" height="4.5" fill="#000000"/>
  <rect x="125.25" y="10.25" width="4.5" height="4.5" fill="#000000"/>
  <rect x="125.25" y="13.25" width="4.5" height="4.5" fill="#000000"/>
  <rect x="125.25" y="16.25" width="4.5" height="4.5" fill="#000000"/>
  <rect x="122.25" y="19.25" width="10.5" height="4.5" fill="#000000"/>
  <rect x="123" y="2" width="9" height="3" fill="#6E6E6E"/>
  <rect x="126" y="5" width="3" height="3" fill="#6E6E6E"/>
  <rect x="126" y="8" width="3" height="3" fill="#6E6E6E"/>
  <rect x="126" y="11" width="3" height="3" fill="#6E6E6E"/>
  <rect x="126" y="14" width="3" height="3" fill="#6E6E6E"/>
  <rect x="126" y="17" width="3" height="3" fill="#6E6E6E"/>
  <rect x="123" y="20" width="9" height="3" fill="#6E6E6E"/>
  <rect x="123.25" y="2.25" width="4.5" height="4.5" fill="#000000"/>
  <rect x="123.25" y="5.25" width="4.5" height="4.5" fill="#000000"/>
  <rect x="123.25" y="8.25" width="4.5" height="4.5" fill="#000000"/>
  <rect x="123.25" y="11.25" width="4.5" height="4.5" fill="#000000"/>
  <rect x="123.25" y="14.25" width="4.5" height="4.5" fill="#000000"/>
  <rect x="120.25" y="17.25" width="10.5" height="4.5" fill="#000000"/>
  <rect x="121" y="0" width="9" height="3" fill="#9E9E9E"/>
  <rect x="124" y="3" width="3" height="3" fill="#8F8F8F"/>
  <rect x="124" y="6" width="3" height="3" fill="#9E9E9E"/>
  <rect x="124" y="9" width="3" height="3" fill="#9E9E9E"/>
  <rect x="124" y="12" width="3" height="3" fill="#9E9E9E"/>
  <rect x="124" y="15" width="3" height="3" fill="#9E9E9E"/>
  <rect x="121" y="18" width="3" height="3" fill="#9E9E9E"/>
  <rect x="124" y="18" width="3" height="3" fill="#ACACAC"/>
  <rect x="127" y="18" width="3" height="3" fill="#9E9E9E"/>
  <rect x="121" y="0.75" width="9" height="1.5" fill="#D8D8D8"/>
  <rect x="121" y="18.75" width="3" height="1.5" fill="#D8D8D8"/>
  <rect x="127" y="18.75" width="3" height="1.5" fill="#D8D8D8"/>
  <rect x="139.25" y="1.25" width="4.5" height="4.5" fill="#000000"/>
  <rect x="154.25" y="1.25" width="4.5" height="4.5" fill="#000000"/>
  <rect x="139.25" y="4.25" width="7.5" height="4.5" fill="#000000"/>
  <rect x="154.25" y="4.25" width="4.5" height="4.5" fill="#000000"/>
  <rect x="139.25" y="7.25" width="4.5" height="4.5" fill="#000000"/>
  <rect x="145.25" y="7.25" width="4.5" height="4.5" fill="#000000"/>
  <rect x="154.25" y="7.25" width="4.5" height="4.5" fill="#000000"/>
  <rect x="139.25" y="10.25" width="4.5" height="4.5" fill="#000000"/>
  <rect x="148.25" y="10.25" width="4.5" height="4.5" fill="#000000"/>
  <rect x="154.25" y="10.25" width="4.5" height="4.5" fill="#000000"/>
  <rect x="139.25" y="13.25" width="4.5" height="4.5" fill="#000000"/>
  <rect x="151.25" y="13.25" width="7.5" height="4.5" fill="#000000"/>
  <rect x="139.25" y="16.25" width="4.5" height="4.5" fill="#000000"/>
  <rect x="154.25" y="16.25" width="4.5" height="4.5" fill="#000000"/>
  <rect x="139.25" y="19.25" width="4.5" height="4.5" fill="#000000"/>
  <rect x="154.25" y="19.25" width="4.5" height="4.5" fill="#000000"/>
  <rect x="140" y="2" width="3" height="3" fill="#6E6E6E"/>
  <rect x="155" y="2" width="3" height="3" fill="#6E6E6E"/>
  <rect x="140" y="5" width="6" height="3" fill="#6E6E6E"/>
  <rect x="155" y="5" width="3" height="3" fill="#6E6E6E"/>
  <rect x="140" y="8" width="3" height="3" fill="#6E6E6E"/>
  <rect x="146" y="8" width="3" height="3" fill="#6E6E6E"/>
  <rect x="155" y="8" width="3" height="3" fill="#6E6E6E"/>
  <rect x="140" y="11" width="3" height="3" fill="#6E6E6E"/>
  <rect x="149" y="11" width="3" height="3" fill="#6E6E6E"/>
  <rect x="155" y="11" width="3" height="3" fill="#6E6E6E"/>
  <rect x="140" y="14" width="3" height="3" fill="#6E6E6E"/>
  <rect x="152" y="14" width="6" height="3" fill="#6E6E6E"/>
  <rect x="140" y="17" width="3" height="3" fill="#6E6E6E"/>
  <rect x="155" y="17" width="3" height="3" fill="#6E6E6E"/>
  <rect x="140" y="20" width="3" height="3" fill="#6E6E6E"/>
  <rect x="155" y="20" width="3" height="3" fill="#6E6E6E"/>
  <rect x="137.25" y="2.25" width="7.5" height="4.5" fill="#000000"/>
  <rect x="152.25" y="2.25" width="4.5" height="4.5" fill="#000000"/>
  <rect x="137.25" y="5.25" width="4.5" height="4.5" fill="#000000"/>
  <rect x="143.25" y="5.25" width="4.5" height="4.5" fill="#000000"/>
  <rect x="152.25" y="5.25" width="4.5" height="4.5" fill="#000000"/>
  <rect x="137.25" y="8.25" width="4.5" height="4.5" fill="#000000"/>
  <rect x="146.25" y="8.25" width="4.5" height="4.5" fill="#000000"/>
  <rect x="152.25" y="8.25" width="4.5" height="4.5" fill="#000000"/>
  <rect x="137.25" y="11.25" width="4.5" height="4.5" fill="#000000"/>
  <rect x="149.25" y="11.25" width="7.5" height="4.5" fill="#000000"/>
  <rect x="137.25" y="14.25" width="4.5" height="4.5" fill="#000000"/>
  <rect x="152.25" y="14.25" width="4.5" height="4.5" fill="#000000"/>
  <rect x="137.25" y="17.25" width="4.5" height="4.5" fill="#000000"/>
  <rect x="152.25" y="17.25" width="4.5" height="4.5" fill="#000000"/>
  <rect x="138" y="0" width="3" height="3" fill="#9E9E9E"/>
  <rect x="153" y="0" width="3" height="3" fill="#8F8F8F"/>
  <rect x="138" y="3" width="6" height="3" fill="#9E9E9E"/>
  <rect x="153" y="3" width="3" height="3" fill="#9E9E9E"/>
  <rect x="138" y="6" width="3" height="3" fill="#9E9E9E"/>
  <rect x="144" y="6" width="3" height="3" fill="#9E9E9E"/>
  <rect x="153" y="6" width="3" height="3" fill="#9E9E9E"/>
  <rect x="138" y="9" width="3" height="3" fill="#9E9E9E"/>
  <rect x="147" y="9" width="3" height="3" fill="#9E9E9E"/>
  <rect x="153" y="9" width="3" height="3" fill="#8F8F8F"/>
  <rect x="138" y="12" width="3" height="3" fill="#9E9E9E"/>
  <rect x="150" y="12" width="6" height="3" fill="#9E9E9E"/>
  <rect x="138" y="15" width="3" height="3" fill="#9E9E9E"/>
  <rect x="153" y="15" width="3" height="3" fill="#9E9E9E"/>
  <rect x="138" y="18" width="3" height="3" fill="#9E9E9E"/>
  <rect x="153" y="18" width="3" height="3" fill="#9E9E9E"/>
  <rect x="138" y="0.75" width="3" height="1.5" fill="#D8D8D8"/>
  <rect x="153" y="0.75" width="3" height="1.5" fill="#D8D8D8"/>
  <rect x="141" y="3.75" width="3" height="1.5" fill="#D8D8D8"/>
  <rect x="144" y="6.75" width="3" height="1.5" fill="#D8D8D8"/>
  <rect x="147" y="9.75" width="3" height="1.5" fill="#D8D8D8"/>
  <rect x="150" y="12.75" width="3" height="1.5" fill="#D8D8D8"/>
  <rect x="168.25" y="1.25" width="16.5" height="4.5" fill="#000000"/>
  <rect x="165.25" y="4.25" width="4.5" height="4.5" fill="#000000"/>
  <rect x="165.25" y="7.25" width="4.5" height="4.5" fill="#000000"/>
  <rect x="165.25" y="10.25" width="4.5" height="4.5" fill="#000000"/>
  <rect x="165.25" y="13.25" width="4.5" height="4.5" fill="#000000"/>
  <rect x="165.25" y="16.25" width="4.5" height="4.5" fill="#000000"/>
  <rect x="168.25" y="19.25" width="16.5" height="4.5" fill="#000000"/>
  <rect x="169" y="2" width="15" height="3" fill="#6E6E6E"/>
  <rect x="166" y="5" width="3" height="3" fill="#6E6E6E"/>
  <rect x="166" y="8" width="3" height="3" fill="#6E6E6E"/>
  <rect x="166" y="11" width="3" height="3" fill="#6E6E6E"/>
  <rect x="166" y="14" width="3" height="3" fill="#6E6E6E"/>
  <rect x="166" y="17" width="3" height="3" fill="#6E6E6E"/>
  <rect x="169" y="20" width="15" height="3" fill="#6E6E6E"/>
  <rect x="163.25" y="2.25" width="4.5" height="4.5" fill="#000000"/>
  <rect x="163.25" y="5.25" width="4.5" height="4.5" fill="#000000"/>
  <rect x="163.25" y="8.25" width="4.5" height="4.5" fill="#000000"/>
  <rect x="163.25" y="11.25" width="4.5" height="4.5" fill="#000000"/>
  <rect x="163.25" y="14.25" width="4.5" height="4.5" fill="#000000"/>
  <rect x="166.25" y="17.25" width="16.5" height="4.5" fill="#000000"/>
  <rect x="167" y="0" width="3" height="3" fill="#8F8F8F"/>
  <rect x="170" y="0" width="9" height="3" fill="#9E9E9E"/>
  <rect x="179" y="0" width="3" height="3" fill="#8F8F8F"/>
  <rect x="164" y="3" width="3" height="3" fill="#9E9E9E"/>
  <rect x="164" y="6" width="3" height="3" fill="#9E9E9E"/>
  <rect x="164" y="9" width="3" height="3" fill="#9E9E9E"/>
  <rect x="164" y="12" width="3" height="3" fill="#ACACAC"/>
  <rect x="164" y="15" width="3" height="3" fill="#ACACAC"/>
  <rect x="167" y="18" width="3" height="3" fill="#9E9E9E"/>
  <rect x="170" y="18" width="3" height="3" fill="#8F8F8F"/>
  <rect x="173" y="18" width="9" height="3" fill="#9E9E9E"/>
  <rect x="167" y="0.75" width="15" height="1.5" fill="#D8D8D8"/>
  <rect x="164" y="3.75" width="3" height="1.5" fill="#D8D8D8"/>
  <rect x="167" y="18.75" width="15" height="1.5" fill="#D8D8D8"/>
  <rect x="77.25" y="22.25" width="16.5" height="4.5" fill="#000000"/>
  <rect x="77.25" y="25.25" width="4.5" height="4.5" fill="#000000"/>
  <rect x="77.25" y="28.25" width="4.5" height="4.5" fill="#000000"/>
  <rect x="77.25" y="31.25" width="13.5" height="4.5" fill="#000000"/>
  <rect x="77.25" y="34.25" width="4.5" height="4.5" fill="#000000"/>
  <rect x="77.25" y="37.25" width="4.5" height="4.5" fill="#000000"/>
  <rect x="77.25" y="40.25" width="16.5" height="4.5" fill="#000000"/>
  <rect x="78" y="23" width="15" height="3" fill="#6E6E6E"/>
  <rect x="78" y="26" width="3" height="3" fill="#6E6E6E"/>
  <rect x="78" y="29" width="3" height="3" fill="#6E6E6E"/>
  <rect x="78" y="32" width="12" height="3" fill="#6E6E6E"/>
  <rect x="78" y="35" width="3" height="3" fill="#6E6E6E"/>
  <rect x="78" y="38" width="3" height="3" fill="#6E6E6E"/>
  <rect x="78" y="41" width="15" height="3" fill="#6E6E6E"/>
  <rect x="75.25" y="20.25" width="16.5" height="4.5" fill="#000000"/>
  <rect x="75.25" y="23.25" width="4.5" height="4.5" fill="#000000"/>
  <rect x="75.25" y="26.25" width="4.5" height="4.5" fill="#000000"/>
  <rect x="75.25" y="29.25" width="13.5" height="4.5" fill="#000000"/>
  <rect x="75.25" y="32.25" width="4.5" height="4.5" fill="#000000"/>
  <rect x="75.25" y="35.25" width="4.5" height="4.5" fill="#000000"/>
  <rect x="75.25" y="38.25" width="16.5" height="4.5" fill="#000000"/>
  <rect x="76" y="21" width="15" height="3" fill="#9E9E9E"/>
  <rect x="76" y="24" width="3" height="3" fill="#9E9E9E"/>
  <rect x="76" y="27" width="3" height="3" fill="#9E9E9E"/>
  <rect x="76" y="30" width="3" height="3" fill="#9E9E9E"/>
  <rect x="79" y="30" width="3" height="3" fill="#8F8F8F"/>
  <rect x="82" y="30" width="6" height="3" fill="#9E9E9E"/>
  <rect x="76" y="33" width="3" height="3" fill="#8F8F8F"/>
  <rect x="76" y="36" width="3" height="3" fill="#9E9E9E"/>
  <rect x="76" y="39" width="3" height="3" fill="#9E9E9E"/>
  <rect x="79" y="39" width="3" height="3" fill="#8F8F8F"/>
  <rect x="82" y="39" width="6" height="3" fill="#9E9E9E"/>
  <rect x="88" y="39" width="3" height="3" fill="#8F8F8F"/>
  <rect x="76" y="21.75" width="15" height="1.5" fill="#D8D8D8"/>
  <rect x="79" y="30.75" width="9" height="1.5" fill="#D8D8D8"/>
  <rect x="79" y="39.75" width="12" height="1.5" fill="#D8D8D8"/>
  <rect x="100.25" y="22.25" width="16.5" height="4.5" fill="#000000"/>
  <rect x="100.25" y="25.25" width="4.5" height="4.5" fill="#000000"/>
  <rect x="115.25" y="25.25" width="4.5" height="4.5" fill="#000000"/>
  <rect x="100.25" y="28.25" width="4.5" height="4.5" fill="#000000"/>
  <rect x="115.25" y="28.25" width="4.5" height="4.5" fill="#000000"/>
  <rect x="100.25" y="31.25" width="16.5" height="4.5" fill="#000000"/>
  <rect x="100.25" y="34.25" width="4.5" height="4.5" fill="#000000"/>
  <rect x="109.25" y="34.25" width="4.5" height="4.5" fill="#000000"/>
  <rect x="100.25" y="37.25" width="4.5" height="4.5" fill="#000000"/>
  <rect x="112.25" y="37.25" width="4.5" height="4.5" fill="#000000"/>
  <rect x="100.25" y="40.25" width="4.5" height="4.5" fill="#000000"/>
  <rect x="115.25" y="40.25" width="4.5" height="4.5" fill="#000000"/>
  <rect x="101" y="23" width="15" height="3" fill="#6E6E6E"/>
  <rect x="101" y="26" width="3" height="3" fill="#6E6E6E"/>
  <rect x="116" y="26" width="3" height="3" fill="#6E6E6E"/>
  <rect x="101" y="29" width="3" height="3" fill="#6E6E6E"/>
  <rect x="116" y="29" width="3" height="3" fill="#6E6E6E"/>
  <rect x="101" y="32" width="15" height="3" fill="#6E6E6E"/>
  <rect x="101" y="35" width="3" height="3" fill="#6E6E6E"/>
  <rect x="110" y="35" width="3" height="3" fill="#6E6E6E"/>
  <rect x="101" y="38" width="3" height="3" fill="#6E6E6E"/>
  <rect x="113" y="38" width="3" height="3" fill="#6E6E6E"/>
  <rect x="101" y="41" width="3" height="3" fill="#6E6E6E"/>
  <rect x="116" y="41" width="3" height="3" fill="#6E6E6E"/>
  <rect x="98.25" y="20.25" width="16.5" height="4.5" fill="#000000"/>
  <rect x="98.25" y="23.25" width="4.5" height="4.5" fill="#000000"/>
  <rect x="113.25" y="23.25" width="4.5" height="4.5" fill="#000000"/>
  <rect x="98.25" y="26.25" width="4.5" height="4.5" fill="#000000"/>
  <rect x="113.25" y="26.25" width="4.5" height="4.5" fill="#000000"/>
  <rect x="98.25" y="29.25" width="16.5" height="4.5" fill="#000000"/>
  <rect x="98.25" y="32.25" width="4.5" height="4.5" fill="#000000"/>
  <rect x="107.25" y="32.25" width="4.5" height="4.5" fill="#000000"/>
  <rect x="98.25" y="35.25" width="4.5" height="4.5" fill="#000000"/>
  <rect x="110.25" y="35.25" width="4.5" height="4.5" fill="#000000"/>
  <rect x="98.25" y="38.25" width="4.5" height="4.5" fill="#000000"/>
  <rect x="113.25" y="38.25" width="4.5" height="4.5" fill="#000000"/>
  <rect x="99" y="21" width="3" height="3" fill="#9E9E9E"/>
  <rect x="102" y="21" width="3" height="3" fill="#8F8F8F"/>
  <rect x="105" y="21" width="3" height="3" fill="#9E9E9E"/>
  <rect x="108" y="21" width="3" height="3" fill="#ACACAC"/>
  <rect x="111" y="21" width="3" height="3" fill="#9E9E9E"/>
  <rect x="99" y="24" width="3" height="3" fill="#9E9E9E"/>
  <rect x="114" y="24" width="3" height="3" fill="#9E9E9E"/>
  <rect x="99" y="27" width="3" height="3" fill="#9E9E9E"/>
  <rect x="114" y="27" width="3" height="3" fill="#9E9E9E"/>
  <rect x="99" y="30" width="15" height="3" fill="#9E9E9E"/>
  <rect x="99" y="33" width="3" height="3" fill="#9E9E9E"/>
  <rect x="108" y="33" width="3" height="3" fill="#ACACAC"/>
  <rect x="99" y="36" width="3" height="3" fill="#9E9E9E"/>
  <rect x="111" y="36" width="3" height="3" fill="#9E9E9E"/>
  <rect x="99" y="39" width="3" height="3" fill="#9E9E9E"/>
  <rect x="114" y="39" width="3" height="3" fill="#9E9E9E"/>
  <rect x="99" y="21.75" width="15" height="1.5" fill="#D8D8D8"/>
  <rect x="114" y="24.75" width="3" height="1.5" fill="#D8D8D8"/>
  <rect x="102" y="30.75" width="12" height="1.5" fill="#D8D8D8"/>
  <rect x="111" y="36.75" width="3" height="1.5" fill="#D8D8D8"/>
  <rect x="114" y="39.75" width="3" height="1.5" fill="#D8D8D8"/>
  <rect x="132.25" y="22.25" width="10.5" height="4.5" fill="#000000"/>
  <rect x="129.25" y="25.25" width="4.5" height="4.5" fill="#000000"/>
  <rect x="141.25" y="25.25" width="4.5" height="4.5" fill="#000000"/>
  <rect x="126.25" y="28.25" width="4.5" height="4.5" fill="#000000"/>
  <rect x="144.25" y="28.25" width="4.5" height="4.5" fill="#000000"/>
  <rect x="126.25" y="31.25" width="4.5" height="4.5" fill="#000000"/>
  <rect x="144.25" y="31.25" width="4.5" height="4.5" fill="#000000"/>
  <rect x="126.25" y="34.25" width="22.5" height="4.5" fill="#000000"/>
  <rect x="126.25" y="37.25" width="4.5" height="4.5" fill="#000000"/>
  <rect x="144.25" y="37.25" width="4.5" height="4.5" fill="#000000"/>
  <rect x="126.25" y="40.25" width="4.5" height="4.5" fill="#000000"/>
  <rect x="144.25" y="40.25" width="4.5" height="4.5" fill="#000000"/>
  <rect x="133" y="23" width="9" height="3" fill="#6E6E6E"/>
  <rect x="130" y="26" width="3" height="3" fill="#6E6E6E"/>
  <rect x="142" y="26" width="3" height="3" fill="#6E6E6E"/>
  <rect x="127" y="29" width="3" height="3" fill="#6E6E6E"/>
  <rect x="145" y="29" width="3" height="3" fill="#6E6E6E"/>
  <rect x="127" y="32" width="3" height="3" fill="#6E6E6E"/>
  <rect x="145" y="32" width="3" height="3" fill="#6E6E6E"/>
  <rect x="127" y="35" width="21" height="3" fill="#6E6E6E"/>
  <rect x="127" y="38" width="3" height="3" fill="#6E6E6E"/>
  <rect x="145" y="38" width="3" height="3" fill="#6E6E6E"/>
  <rect x="127" y="41" width="3" height="3" fill="#6E6E6E"/>
  <rect x="145" y="41" width="3" height="3" fill="#6E6E6E"/>
  <rect x="130.25" y="20.25" width="10.5" height="4.5" fill="#000000"/>
  <rect x="127.25" y="23.25" width="4.5" height="4.5" fill="#000000"/>
  <rect x="139.25" y="23.25" width="4.5" height="4.5" fill="#000000"/>
  <rect x="124.25" y="26.25" width="4.5" height="4.5" fill="#000000"/>
  <rect x="142.25" y="26.25" width="4.5" height="4.5" fill="#000000"/>
  <rect x="124.25" y="29.25" width="4.5" height="4.5" fill="#000000"/>
  <rect x="142.25" y="29.25" width="4.5" height="4.5" fill="#000000"/>
  <rect x="124.25" y="32.25" width="22.5" height="4.5" fill="#000000"/>
  <rect x="124.25" y="35.25" width="4.5" height="4.5" fill="#000000"/>
  <rect x="142.25" y="35.25" width="4.5" height="4.5" fill="#000000"/>
  <rect x="124.25" y="38.25" width="4.5" height="4.5" fill="#000000"/>
  <rect x="142.25" y="38.25" width="4.5" height="4.5" fill="#000000"/>
  <rect x="131" y="21" width="9" height="3" fill="#9E9E9E"/>
  <rect x="128" y="24" width="3" height="3" fill="#9E9E9E"/>
  <rect x="140" y="24" width="3" height="3" fill="#9E9E9E"/>
  <rect x="125" y="27" width="3" height="3" fill="#9E9E9E"/>
  <rect x="143" y="27" width="3" height="3" fill="#9E9E9E"/>
  <rect x="125" y="30" width="3" height="3" fill="#9E9E9E"/>
  <rect x="143" y="30" width="3" height="3" fill="#9E9E9E"/>
  <rect x="125" y="33" width="6" height="3" fill="#9E9E9E"/>
  <rect x="131" y="33" width="3" height="3" fill="#8F8F8F"/>
  <rect x="134" y="33" width="12" height="3" fill="#9E9E9E"/>
  <rect x="125" y="36" width="3" height="3" fill="#9E9E9E"/>
  <rect x="143" y="36" width="3" height="3" fill="#8F8F8F"/>
  <rect x="125" y="39" width="3" height="3" fill="#9E9E9E"/>
  <rect x="143" y="39" width="3" height="3" fill="#9E9E9E"/>
  <rect x="131" y="21.75" width="9" height="1.5" fill="#D8D8D8"/>
  <rect x="128" y="24.75" width="3" height="1.5" fill="#D8D8D8"/>
  <rect x="140" y="24.75" width="3" height="1.5" fill="#D8D8D8"/>
  <rect x="125" y="27.75" width="3" height="1.5" fill="#D8D8D8"/>
  <rect x="143" y="27.75" width="3" height="1.5" fill="#D8D8D8"/>
  <rect x="128" y="33.75" width="15" height="1.5" fill="#D8D8D8"/>
  <rect x="155.25" y="22.25" width="16.5" height="4.5" fill="#000000"/>
  <rect x="155.25" y="25.25" width="4.5" height="4.5" fill="#000000"/>
  <rect x="155.25" y="28.25" width="4.5" height="4.5" fill="#000000"/>
  <rect x="155.25" y="31.25" width="13.5" height="4.5" fill="#000000"/>
  <rect x="155.25" y="34.25" width="4.5" height="4.5" fill="#000000"/>
  <rect x="155.25" y="37.25" width="4.5" height="4.5" fill="#000000"/>
  <rect x="155.25" y="40.25" width="4.5" height="4.5" fill="#000000"/>
  <rect x="156" y="23" width="15" height="3" fill="#6E6E6E"/>
  <rect x="156" y="26" width="3" height="3" fill="#6E6E6E"/>
  <rect x="156" y="29" width="3" height="3" fill="#6E6E6E"/>
  <rect x="156" y="32" width="12" height="3" fill="#6E6E6E"/>
  <rect x="156" y="35" width="3" height="3" fill="#6E6E6E"/>
  <rect x="156" y="38" width="3" height="3" fill="#6E6E6E"/>
  <rect x="156" y="41" width="3" height="3" fill="#6E6E6E"/>
  <rect x="153.25" y="20.25" width="16.5" height="4.5" fill="#000000"/>
  <rect x="153.25" y="23.25" width="4.5" height="4.5" fill="#000000"/>
  <rect x="153.25" y="26.25" width="4.5" height="4.5" fill="#000000"/>
  <rect x="153.25" y="29.25" width="13.5" height="4.5" fill="#000000"/>
  <rect x="153.25" y="32.25" width="4.5" height="4.5" fill="#000000"/>
  <rect x="153.25" y="35.25" width="4.5" height="4.5" fill="#000000"/>
  <rect x="153.25" y="38.25" width="4.5" height="4.5" fill="#000000"/>
  <rect x="154" y="21" width="6" height="3" fill="#9E9E9E"/>
  <rect x="160" y="21" width="3" height="3" fill="#8F8F8F"/>
  <rect x="163" y="21" width="6" height="3" fill="#9E9E9E"/>
  <rect x="154" y="24" width="3" height="3" fill="#9E9E9E"/>
  <rect x="154" y="27" width="3" height="3" fill="#9E9E9E"/>
  <rect x="154" y="30" width="12" height="3" fill="#9E9E9E"/>
  <rect x="154" y="33" width="3" height="3" fill="#8F8F8F"/>
  <rect x="154" y="36" width="3" height="3" fill="#9E9E9E"/>
  <rect x="154" y="39" width="3" height="3" fill="#9E9E9E"/>
  <rect x="154" y="21.75" width="15" height="1.5" fill="#D8D8D8"/>
  <rect x="157" y="30.75" width="9" height="1.5" fill="#D8D8D8"/>
  <rect x="178.25" y="22.25" width="22.5" height="4.5" fill="#000000"/>
  <rect x="187.25" y="25.25" width="4.5" height="4.5" fill="#000000"/>
  <rect x="187.25" y="28.25" width="4.5" height="4.5" fill="#000000"/>
  <rect x="187.25" y="31.25" width="4.5" height="4.5" fill="#000000"/>
  <rect x="187.25" y="34.25" width="4.5" height="4.5" fill="#000000"/>
  <rect x="187.25" y="37.25" width="4.5" height="4.5" fill="#000000"/>
  <rect x="187.25" y="40.25" width="4.5" height="4.5" fill="#000000"/>
  <rect x="179" y="23" width="21" height="3" fill="#6E6E6E"/>
  <rect x="188" y="26" width="3" height="3" fill="#6E6E6E"/>
  <rect x="188" y="29" width="3" height="3" fill="#6E6E6E"/>
  <rect x="188" y="32" width="3" height="3" fill="#6E6E6E"/>
  <rect x="188" y="35" width="3" height="3" fill="#6E6E6E"/>
  <rect x="188" y="38" width="3" height="3" fill="#6E6E6E"/>
  <rect x="188" y="41" width="3" height="3" fill="#6E6E6E"/>
  <rect x="176.25" y="20.25" width="22.5" height="4.5" fill="#000000"/>
  <rect x="185.25" y="23.25" width="4.5" height="4.5" fill="#000000"/>
  <rect x="185.25" y="26.25" width="4.5" height="4.5" fill="#000000"/>
  <rect x="185.25" y="29.25" width="4.5" height="4.5" fill="#000000"/>
  <rect x="185.25" y="32.25" width="4.5" height="4.5" fill="#000000"/>
  <rect x="185.25" y="35.25" width="4.5" height="4.5" fill="#000000"/>
  <rect x="185.25" y="38.25" width="4.5" height="4.5" fill="#000000"/>
  <rect x="177" y="21" width="21" height="3" fill="#9E9E9E"/>
  <rect x="186" y="24" width="3" height="3" fill="#9E9E9E"/>
  <rect x="186" y="27" width="3" height="3" fill="#8F8F8F"/>
  <rect x="186" y="30" width="3" height="3" fill="#9E9E9E"/>
  <rect x="186" y="33" width="3" height="3" fill="#8F8F8F"/>
  <rect x="186" y="36" width="3" height="3" fill="#9E9E9E"/>
  <rect x="186" y="39" width="3" height="3" fill="#9E9E9E"/>
  <rect x="177" y="21.75" width="21" height="1.5" fill="#D8D8D8"/>
  <rect x="134" y="41" width="2" height="2" fill="#8F8F8F"/>
  <rect x="180" y="42" width="1" height="1" fill="#6E6E6E"/>
  <rect x="137" y="43" width="1" height="1" fill="#9E9E9E"/>
  <rect x="163" y="43" width="1" height="1" fill="#6E6E6E"/>
  <rect x="101" y="43" width="1" height="1" fill="#4A4A4A"/>
  <rect x="245" y="35" width="9" height="1" fill="#3F3F00"/>
  <rect x="245" y="36" width="1" height="1" fill="#3F3F00"/>
  <rect x="248" y="36" width="1" height="1" fill="#3F3F00"/>
  <rect x="250" y="36" width="2" height="1" fill="#3F3F00"/>
  <rect x="253" y="36" width="1" height="1" fill="#3F3F00"/>
  <rect x="245" y="37" width="1" height="1" fill="#3F3F00"/>
  <rect x="248" y="37" width="1" height="1" fill="#3F3F00"/>
  <rect x="250" y="37" width="2" height="1" fill="#3F3F00"/>
  <rect x="253" y="37" width="1" height="1" fill="#3F3F00"/>
  <rect x="245" y="38" width="7" height="1" fill="#3F3F00"/>
  <rect x="253" y="38" width="1" height="1" fill="#3F3F00"/>
  <rect x="245" y="39" width="1" height="1" fill="#3F3F00"/>
  <rect x="247" y="39" width="2" height="1" fill="#3F3F00"/>
  <rect x="250" y="39" width="2" height="1" fill="#3F3F00"/>
  <rect x="253" y="39" width="1" height="1" fill="#3F3F00"/>
  <rect x="245" y="40" width="1" height="1" fill="#3F3F00"/>
  <rect x="247" y="40" width="7" height="1" fill="#3F3F00"/>
  <rect x="245" y="41" width="1" height="1" fill="#3F3F00"/>
  <rect x="247" y="41" width="2" height="1" fill="#3F3F00"/>
  <rect x="250" y="41" width="1" height="1" fill="#3F3F00"/>
  <rect x="253" y="41" width="1" height="1" fill="#3F3F00"/>
  <rect x="245" y="42" width="3" height="1" fill="#3F3F00"/>
  <rect x="249" y="42" width="2" height="1" fill="#3F3F00"/>
  <rect x="253" y="42" width="1" height="1" fill="#3F3F00"/>
  <rect x="244" y="34" width="9" height="1" fill="#FFFF55"/>
  <rect x="244" y="35" width="1" height="1" fill="#FFFF55"/>
  <rect x="247" y="35" width="1" height="1" fill="#FFFF55"/>
  <rect x="249" y="35" width="2" height="1" fill="#FFFF55"/>
  <rect x="252" y="35" width="1" height="1" fill="#FFFF55"/>
  <rect x="244" y="36" width="1" height="1" fill="#FFFF55"/>
  <rect x="247" y="36" width="1" height="1" fill="#FFFF55"/>
  <rect x="249" y="36" width="2" height="1" fill="#FFFF55"/>
  <rect x="252" y="36" width="1" height="1" fill="#FFFF55"/>
  <rect x="244" y="37" width="7" height="1" fill="#FFFF55"/>
  <rect x="252" y="37" width="1" height="1" fill="#FFFF55"/>
  <rect x="244" y="38" width="1" height="1" fill="#FFFF55"/>
  <rect x="246" y="38" width="2" height="1" fill="#FFFF55"/>
  <rect x="249" y="38" width="2" height="1" fill="#FFFF55"/>
  <rect x="252" y="38" width="1" height="1" fill="#FFFF55"/>
  <rect x="244" y="39" width="1" height="1" fill="#FFFF55"/>
  <rect x="246" y="39" width="7" height="1" fill="#FFFF55"/>
  <rect x="244" y="40" width="1" height="1" fill="#FFFF55"/>
  <rect x="246" y="40" width="2" height="1" fill="#FFFF55"/>
  <rect x="249" y="40" width="1" height="1" fill="#FFFF55"/>
  <rect x="252" y="40" width="1" height="1" fill="#FFFF55"/>
  <rect x="244" y="41" width="3" height="1" fill="#FFFF55"/>
  <rect x="248" y="41" width="2" height="1" fill="#FFFF55"/>
  <rect x="252" y="41" width="1" height="1" fill="#FFFF55"/>
  <rect x="255" y="35" width="9" height="1" fill="#3F3F00"/>
  <rect x="258" y="36" width="2" height="1" fill="#3F3F00"/>
  <rect x="256" y="37" width="8" height="1" fill="#3F3F00"/>
  <rect x="256" y="38" width="1" height="1" fill="#3F3F00"/>
  <rect x="259" y="38" width="1" height="1" fill="#3F3F00"/>
  <rect x="262" y="38" width="2" height="1" fill="#3F3F00"/>
  <rect x="256" y="39" width="1" height="1" fill="#3F3F00"/>
  <rect x="259" y="39" width="1" height="1" fill="#3F3F00"/>
  <rect x="262" y="39" width="2" height="1" fill="#3F3F00"/>
  <rect x="256" y="40" width="1" height="1" fill="#3F3F00"/>
  <rect x="259" y="40" width="1" height="1" fill="#3F3F00"/>
  <rect x="262" y="40" width="2" height="1" fill="#3F3F00"/>
  <rect x="256" y="41" width="1" height="1" fill="#3F3F00"/>
  <rect x="259" y="41" width="1" height="1" fill="#3F3F00"/>
  <rect x="262" y="41" width="2" height="1" fill="#3F3F00"/>
  <rect x="256" y="42" width="1" height="1" fill="#3F3F00"/>
  <rect x="258" y="42" width="5" height="1" fill="#3F3F00"/>
  <rect x="254" y="34" width="9" height="1" fill="#FFFF55"/>
  <rect x="257" y="35" width="2" height="1" fill="#FFFF55"/>
  <rect x="255" y="36" width="8" height="1" fill="#FFFF55"/>
  <rect x="255" y="37" width="1" height="1" fill="#FFFF55"/>
  <rect x="258" y="37" width="1" height="1" fill="#FFFF55"/>
  <rect x="261" y="37" width="2" height="1" fill="#FFFF55"/>
  <rect x="255" y="38" width="1" height="1" fill="#FFFF55"/>
  <rect x="258" y="38" width="1" height="1" fill="#FFFF55"/>
  <rect x="261" y="38" width="2" height="1" fill="#FFFF55"/>
  <rect x="255" y="39" width="1" height="1" fill="#FFFF55"/>
  <rect x="258" y="39" width="1" height="1" fill="#FFFF55"/>
  <rect x="261" y="39" width="2" height="1" fill="#FFFF55"/>
  <rect x="255" y="40" width="1" height="1" fill="#FFFF55"/>
  <rect x="258" y="40" width="1" height="1" fill="#FFFF55"/>
  <rect x="261" y="40" width="2" height="1" fill="#FFFF55"/>
  <rect x="255" y="41" width="1" height="1" fill="#FFFF55"/>
  <rect x="257" y="41" width="5" height="1" fill="#FFFF55"/>
  <rect x="265" y="35" width="1" height="1" fill="#3F3F00"/>
  <rect x="267" y="35" width="1" height="1" fill="#3F3F00"/>
  <rect x="265" y="36" width="1" height="1" fill="#3F3F00"/>
  <rect x="267" y="36" width="1" height="1" fill="#3F3F00"/>
  <rect x="269" y="36" width="5" height="1" fill="#3F3F00"/>
  <rect x="265" y="37" width="1" height="1" fill="#3F3F00"/>
  <rect x="267" y="37" width="1" height="1" fill="#3F3F00"/>
  <rect x="269" y="37" width="2" height="1" fill="#3F3F00"/>
  <rect x="265" y="38" width="6" height="1" fill="#3F3F00"/>
  <rect x="265" y="39" width="1" height="1" fill="#3F3F00"/>
  <rect x="269" y="39" width="5" height="1" fill="#3F3F00"/>
  <rect x="265" y="40" width="1" height="1" fill="#3F3F00"/>
  <rect x="269" y="40" width="3" height="1" fill="#3F3F00"/>
  <rect x="273" y="40" width="1" height="1" fill="#3F3F00"/>
  <rect x="265" y="41" width="3" height="1" fill="#3F3F00"/>
  <rect x="269" y="41" width="5" height="1" fill="#3F3F00"/>
  <rect x="265" y="42" width="1" height="1" fill="#3F3F00"/>
  <rect x="267" y="42" width="1" height="1" fill="#3F3F00"/>
  <rect x="269" y="42" width="1" height="1" fill="#3F3F00"/>
  <rect x="271" y="42" width="3" height="1" fill="#3F3F00"/>
  <rect x="265" y="43" width="1" height="1" fill="#3F3F00"/>
  <rect x="267" y="43" width="3" height="1" fill="#3F3F00"/>
  <rect x="271" y="43" width="2" height="1" fill="#3F3F00"/>
  <rect x="264" y="34" width="1" height="1" fill="#FFFF55"/>
  <rect x="266" y="34" width="1" height="1" fill="#FFFF55"/>
  <rect x="264" y="35" width="1" height="1" fill="#FFFF55"/>
  <rect x="266" y="35" width="1" height="1" fill="#FFFF55"/>
  <rect x="268" y="35" width="5" height="1" fill="#FFFF55"/>
  <rect x="264" y="36" width="1" height="1" fill="#FFFF55"/>
  <rect x="266" y="36" width="1" height="1" fill="#FFFF55"/>
  <rect x="268" y="36" width="2" height="1" fill="#FFFF55"/>
  <rect x="264" y="37" width="6" height="1" fill="#FFFF55"/>
  <rect x="264" y="38" width="1" height="1" fill="#FFFF55"/>
  <rect x="268" y="38" width="5" height="1" fill="#FFFF55"/>
  <rect x="264" y="39" width="1" height="1" fill="#FFFF55"/>
  <rect x="268" y="39" width="3" height="1" fill="#FFFF55"/>
  <rect x="272" y="39" width="1" height="1" fill="#FFFF55"/>
  <rect x="264" y="40" width="3" height="1" fill="#FFFF55"/>
  <rect x="268" y="40" width="5" height="1" fill="#FFFF55"/>
  <rect x="264" y="41" width="1" height="1" fill="#FFFF55"/>
  <rect x="266" y="41" width="1" height="1" fill="#FFFF55"/>
  <rect x="268" y="41" width="1" height="1" fill="#FFFF55"/>
  <rect x="270" y="41" width="3" height="1" fill="#FFFF55"/>
  <rect x="264" y="42" width="1" height="1" fill="#FFFF55"/>
  <rect x="266" y="42" width="3" height="1" fill="#FFFF55"/>
  <rect x="270" y="42" width="2" height="1" fill="#FFFF55"/>
  <polyline points="96,4 97,5 96,7 97,8" fill="none" stroke="#000000" stroke-width="0.6" stroke-linecap="square" stroke-linejoin="miter"/>
  <polyline points="104,25 105,26 104,28" fill="none" stroke="#000000" stroke-width="0.6" stroke-linecap="square" stroke-linejoin="miter"/>
  <polyline points="183,24 184,25 183,27" fill="none" stroke="#000000" stroke-width="0.6" stroke-linecap="square" stroke-linejoin="miter"/>
</svg>
